<svg width="137" height="43" viewBox="0 0 137 43" fill="none" xmlns="http://www.w3.org/2000/svg">
<path fill-rule="evenodd" clip-rule="evenodd" d="M128.889 25.0689C132.132 25.0689 133.993 22.3356 134.07 22.2191C134.542 21.5111 135.495 21.3181 136.199 21.7892C136.904 22.2612 137.1 23.2141 136.636 23.9265C136.524 24.1001 133.818 28.1683 128.889 28.1683C126.086 28.1683 124.481 26.8989 123.629 25.834C123.532 25.7135 123.444 25.5851 123.356 25.4567C121.547 26.7076 118.855 28.1683 116.142 28.1683C113.411 28.1683 111.853 26.9586 111.025 25.9433C110.369 25.1388 109.918 24.1483 109.679 23.0272C108.586 22.9688 107.562 22.7177 106.63 22.282C105.407 25.4651 103.044 28.2051 99.637 28.2051C97.8689 28.2051 96.3332 27.5462 95.1968 26.2998C94.2941 25.3088 93.7204 24.0456 93.3633 22.7137C90.9859 25.4111 87.6856 28.1683 84.12 28.1683C82.2205 28.1683 80.669 27.401 79.6328 25.9491C79.5905 25.89 79.5517 25.8276 79.5128 25.7652C79.4964 25.7387 79.4799 25.7123 79.4632 25.6861C78.325 26.5318 77.3349 27.3102 76.3122 28.1143C75.6155 28.6629 74.8986 29.227 74.1277 29.8159C74.0956 30.0514 74.0627 30.2972 74.0284 30.5562C73.301 36.0422 71.7798 42.6684 66.8506 42.6684C64.374 42.6684 63.4049 41.2878 63.4049 39.1811C63.4049 33.7774 71.2636 28.0611 71.2557 28.1218C71.2579 28.1014 71.261 28.0811 71.2636 28.0611C71.3084 27.7384 71.3541 27.4213 71.402 27.0977C70.6798 27.648 69.5447 28.1896 67.8658 28.1896C66.4113 28.1896 65.3232 27.4731 64.6085 26.3179C63.5301 27.3129 62.0414 28.1896 60.1428 28.1896C57.0345 28.1896 56.3132 26.0655 56.3589 24.0859C56.402 22.2243 56.6827 20.3892 56.9146 18.8727C57.1508 17.328 57.3365 16.1141 57.1689 15.5398C56.8223 14.3527 54.7182 14.2226 54.3703 14.2093C54.0724 17.6988 52.6848 28.1661 46.7317 28.1661C43.7938 28.1661 43.3866 25.7144 43.3866 25.7144C43.3866 25.7144 42.2111 28.1896 38.8005 28.1896C37.3122 28.1896 36.2052 27.4417 35.4914 26.2378C34.4143 27.4355 33.136 28.1962 31.5375 28.1962C29.5194 28.1962 27.4003 27.5041 27.2158 24.5158C27.15 23.4483 28.123 16.2863 28.2033 15.7497C28.2728 15.287 27.9209 14.7468 27.381 14.7468C25.0924 14.7468 23.0963 17.7772 22.8687 19.4234C22.4703 22.3037 22.006 26.0779 21.901 26.9786C21.7363 28.3897 18.6064 28.5283 18.8463 26.84C18.8757 26.6345 19.0202 25.5338 19.2315 23.9185C17.2183 26.7625 14.095 29.4063 9.42727 29.4063C-4.75088 29.4063 0.300818 2.04837 13.9119 2.04837C17.043 2.04837 20.375 4.56291 16.4215 11.2874C14.9907 13.7213 12.4007 11.9901 13.4291 10.4851C14.8682 8.37788 15.8267 4.92244 13.6808 4.92244C4.52228 4.92244 0.00386586 26.4339 9.7945 26.4339C14.9626 26.4339 18.4536 20.506 20.1755 16.6601C20.9403 10.7702 21.7653 4.39022 21.8527 3.68665C22.0543 2.06387 25.1438 2.08025 24.9325 3.69993C24.7304 5.24611 23.6647 13.2985 23.6647 13.2985C24.379 12.5533 26.0808 11.3866 28.3321 11.3866C30.4731 11.3866 31.3429 12.2398 31.4624 14.1752C31.5097 14.9452 31.0537 17.9978 30.7178 20.2466C30.5459 21.3975 30.4054 22.3379 30.38 22.6539C30.2196 24.6522 30.89 25.1056 31.7624 25.1056C32.7218 25.1056 33.7369 24.282 34.5817 23.1277C34.5316 22.5592 34.5215 21.9654 34.5623 21.3508C34.8242 17.3796 36.6463 11.3627 42.5445 11.3627C45.4147 11.3627 46.2546 13.0018 46.4795 13.7607C46.9873 15.48 44.393 16.5179 43.7371 15.0745C43.7371 15.0745 43.2873 14.1424 42.4232 14.1424C39.9044 14.1424 37.8249 17.0984 37.621 20.9701C37.502 23.2287 38.28 25.1056 39.7625 25.1056C42.2124 25.1056 43.112 20.7518 43.4441 18.6477C43.7665 16.6029 46.7479 16.982 46.4975 18.8137C46.4498 19.1623 46.3435 20.1275 46.2342 21.119C46.1664 21.7347 46.0974 22.3605 46.0407 22.855C45.9335 23.7844 46.0174 25.1056 47.2303 25.1056C49.9349 25.1056 51.153 16.3674 51.457 13.7519L51.4491 13.7506C51.4491 13.7506 50.0763 12.9203 50.0763 11.232C50.0763 9.40557 51.1745 8.43721 52.4098 8.43721C54.8258 8.43721 54.8943 11.3843 54.8943 11.3843C54.8943 11.3843 61.165 11.2453 60.4517 16.2983C60.3921 16.7206 60.3214 17.2559 60.2385 17.8832C60.1022 18.916 59.9328 20.1982 59.726 21.6356C59.3772 24.0567 59.9689 25.1056 60.9028 25.1056C61.8556 25.1056 62.8343 24.2462 63.6558 23.2366C63.5964 22.6358 63.5846 22.0048 63.6276 21.3508C63.889 17.3796 65.7116 11.3627 71.6098 11.3627C74.4796 11.3627 75.312 13.0727 75.5444 13.7607C76.0658 15.3016 73.5962 16.5316 72.8024 15.0745C72.8024 15.0745 72.353 14.1424 71.489 14.1424C68.9697 14.1424 66.938 17.2374 66.7118 21.0329C66.5677 23.4465 67.3453 25.1056 68.8274 25.1056C71.2777 25.1056 72.1769 20.7518 72.509 18.6477C72.8314 16.6029 75.8132 16.982 75.5624 18.8137C75.5347 19.0174 75.4789 19.4327 75.4122 19.9393C75.2168 21.7007 75.0352 23.0489 74.8863 24.1534C74.8233 24.6212 74.7661 25.0453 74.7163 25.4386C75.8383 24.5561 77.0081 23.6444 78.4173 22.6207C78.3667 22.212 78.3395 21.7888 78.3395 21.3508C78.3395 16.5175 81.342 11.3427 85.8125 11.3427C87.5209 11.3427 88.8554 12.2757 89.2951 13.7767C89.6984 15.155 89.8082 18.901 82.127 23.9074C82.0918 23.9305 82.0549 23.9522 82.0185 23.9721C82.0541 24.0301 82.0905 24.0859 82.1283 24.139C82.5755 24.7647 83.2265 25.0689 84.12 25.0689C87.2498 25.0689 90.7162 21.3123 92.8322 18.4263C92.8247 17.5726 92.8651 16.788 92.9196 16.1385C93.8105 5.51311 96.1676 0.347656 100.126 0.347656C101.345 0.347656 102.353 0.998983 102.891 2.13559C104.473 5.47547 101.693 12.5294 95.9664 19.7405C96.1356 21.7361 96.6513 23.315 97.4609 24.2023C98.0227 24.8187 98.7141 25.1056 99.637 25.1056C101.693 25.1056 103.266 22.7846 104.025 20.317C103.708 19.9596 103.415 19.5691 103.145 19.1458C101.754 16.9576 101.273 14.2597 102.027 12.8703C102.386 12.2092 103.023 11.8152 103.732 11.8152C105.055 11.8152 106.159 12.4953 106.839 13.7302C107.337 14.633 107.6 15.844 107.6 17.2339C107.6 17.8653 107.548 18.5299 107.444 19.2065C108.069 19.5943 108.774 19.825 109.55 19.9061C110.025 15.6412 112.96 11.3427 117.021 11.3427C118.834 11.3427 120.287 12.7131 120.552 14.6755C120.957 17.6687 118.746 21.423 112.908 23.1295C113.029 23.4284 113.19 23.7171 113.401 23.9761C113.993 24.7013 114.915 25.0689 116.142 25.0689C118.249 25.0689 120.648 23.6453 122.192 22.4941C122.099 21.9606 122.046 21.4035 122.046 20.8222C122.046 16.2443 124.973 11.3427 129.328 11.3427C131.199 11.3427 132.696 12.432 133.143 14.1181C133.516 15.5274 133.562 19.2813 125.941 23.7007L125.933 23.7049C125.922 23.7111 125.91 23.7175 125.899 23.7232C125.939 23.7799 125.979 23.8348 126.021 23.8875C126.649 24.6717 127.614 25.0689 128.889 25.0689ZM96.2014 14.1898C97.1503 5.88552 98.5208 3.44936 100.111 3.44936C101.413 3.44936 100.344 7.92407 96.2014 14.1898ZM112.645 19.9654C116.5 18.6587 117.679 16.3806 117.505 15.0948L117.5 15.0512C117.466 14.7787 117.39 14.1698 116.741 14.1698C114.833 14.1698 113.056 17.2418 112.645 19.9654ZM125.125 20.5839C129.237 18.0402 130.413 15.8263 130.172 14.9181C130.058 14.4886 129.783 14.1698 129.328 14.1698C126.984 14.1698 125.216 17.6355 125.125 20.5839ZM81.4456 20.6353C85.9153 17.4827 86.5136 15.2267 86.3458 14.6542C86.2948 14.4789 86.1978 14.1698 85.8125 14.1698C83.5182 14.1698 81.7013 17.627 81.4456 20.6353ZM66.5127 38.6853C66.5127 35.9914 70.6858 32.3084 70.7315 32.2978C70.1618 35.9201 68.7047 39.5691 67.2915 39.5691C66.8272 39.5691 66.5127 39.2693 66.5127 38.6853Z" fill="black"/>
</svg>
