<svg width="84" height="36" viewBox="0 0 84 36" fill="none" xmlns="http://www.w3.org/2000/svg">
<path d="M6.48802 13.908C6.48802 12.9972 7.2197 12.6469 8.43156 12.6469C10.1693 12.6469 12.3644 13.1841 14.1021 14.1416V8.65339C12.2043 7.8827 10.3294 7.5791 8.43156 7.5791C3.78992 7.5791 0.703125 10.0546 0.703125 14.1883C0.703125 20.634 9.39189 19.6064 9.39189 22.3856C9.39189 23.4599 8.47729 23.8102 7.19684 23.8102C5.29903 23.8102 2.87532 23.0161 0.954642 21.9418V27.5001C3.0811 28.4343 5.23043 28.8313 7.19684 28.8313C11.9528 28.8313 15.2225 26.4258 15.2225 22.2454C15.1997 15.2859 6.48802 16.5237 6.48802 13.908ZM21.9449 2.90829L16.3658 4.1227L16.3429 22.8293C16.3429 26.2857 18.8809 28.8313 22.265 28.8313C24.1399 28.8313 25.5118 28.481 26.2664 28.0606V23.3197C25.5347 23.6233 21.922 24.6976 21.922 21.2412V12.9505H26.2664V7.97612H21.922L21.9449 2.90829ZM33.3775 9.70432L33.0116 7.97612H28.0728V28.4109H33.789V14.562C35.1381 12.7637 37.4246 13.0907 38.1334 13.3476V7.97612C37.4017 7.69587 34.7265 7.18208 33.3775 9.70432ZM39.5282 7.97612H45.2674V28.4109H39.5282V7.97612ZM39.5282 6.20121L45.2674 4.94009V0.199219L39.5282 1.43698V6.20121ZM57.203 7.5791C54.9622 7.5791 53.5217 8.65339 52.7214 9.40072L52.4242 7.95277H47.3938V35.1836L53.1101 33.9458L53.133 27.3366C53.9561 27.9438 55.168 28.8079 57.1801 28.8079C61.273 28.8079 65 25.445 65 18.0417C64.9772 11.269 61.2044 7.5791 57.203 7.5791ZM55.8311 23.67C54.482 23.67 53.6818 23.1796 53.133 22.5724L53.1101 13.908C53.7046 13.2308 54.5278 12.7637 55.8311 12.7637C57.9118 12.7637 59.3523 15.1458 59.3523 18.2052C59.3523 21.3346 57.9347 23.67 55.8311 23.67ZM83.0178 18.2753C83.0178 12.2966 80.1825 7.5791 74.7635 7.5791C69.3215 7.5791 66.029 12.2966 66.029 18.2285C66.029 25.2581 69.916 28.8079 75.4951 28.8079C78.2161 28.8079 80.274 28.1774 81.8288 27.2899V22.6191C80.274 23.4132 78.4905 23.9036 76.2268 23.9036C74.0089 23.9036 72.0425 23.1095 71.791 20.3538H82.9721C82.9721 20.0502 83.0178 18.8358 83.0178 18.2753ZM71.7224 16.0566C71.7224 13.4176 73.3001 12.32 74.7406 12.32C76.1354 12.32 77.6216 13.4176 77.6216 16.0566H71.7224Z" fill="#6060F6"/>
</svg>
